<svg xmlns="http://www.w3.org/2000/svg" width="36" height="36" viewBox="0 0 36 36" fill="none">
<path d="M20.2909 18L35.5091 2.78182C36.1636 2.12727 36.1636 1.14545 35.5091 0.490909C34.8545 -0.163636 33.8727 -0.163636 33.2182 0.490909L18 15.7091L2.78182 0.490909C2.12727 -0.163636 1.14545 -0.163636 0.490909 0.490909C-0.163636 1.14545 -0.163636 2.12727 0.490909 2.78182L15.7091 18L0.490909 33.2182C-0.163636 33.8727 -0.163636 34.8545 0.490909 35.5091C0.818182 35.8364 1.14545 36 1.63636 36C2.12727 36 2.45454 35.8364 2.78182 35.5091L18 20.2909L33.2182 35.5091C33.5455 35.8364 34.0364 36 34.3636 36C34.6909 36 35.1818 35.8364 35.5091 35.5091C36.1636 34.8545 36.1636 33.8727 35.5091 33.2182L20.2909 18Z" fill="#FB7A92"/>
</svg>